<svg xmlns="http://www.w3.org/2000/svg" width="40" height="40" viewBox="0 0 40 40"><defs><style>.a{fill:#fff;}</style></defs><path class="a" d="M42.206,34.063h0L30.071,21.928,42.206,9.793h0a1.253,1.253,0,0,0,0-1.767L36.473,2.293a1.253,1.253,0,0,0-1.767,0h0L22.571,14.428,10.436,2.293h0a1.253,1.253,0,0,0-1.767,0L2.936,8.026a1.253,1.253,0,0,0,0,1.767h0L15.071,21.928,2.936,34.063h0a1.253,1.253,0,0,0,0,1.767l5.732,5.732a1.253,1.253,0,0,0,1.767,0h0L22.571,29.428,34.706,41.563h0a1.253,1.253,0,0,0,1.767,0l5.732-5.732a1.253,1.253,0,0,0,0-1.767Z" transform="translate(-2.571 -1.928)"/></svg>